<svg xmlns="http://www.w3.org/2000/svg" aria-label="ゆめみ" viewBox="0 0 28 28"><linearGradient id="prefix__a" gradientUnits="userSpaceOnUse" x1="27.688" y1="23.134" x2="11.473" y2="23.134" gradientTransform="matrix(1 0 0 -1 0 28.535)"><stop offset="0" stop-color="#008ce6"/><stop offset=".21" stop-color="#13a7e2"/><stop offset=".555" stop-color="#2fcfdc"/><stop offset=".831" stop-color="#40e7d8"/><stop offset="1" stop-color="#46f0d7"/></linearGradient><path fill="url(#prefix__a)" d="M18.243 3c-1.672 0-2.984.275-3.978.825-1.206.677-2.074 1.693-2.624 2.857-.17.36-.296.74-.402 1.121h13.076c.635 0 .804-.085 1.1-.592L27.85 3h-9.606z"/><linearGradient id="prefix__b" gradientUnits="userSpaceOnUse" x1="2.323" y1="26.569" x2="10.43" y2="12.527" gradientTransform="matrix(1 0 0 -1 0 28.535)"><stop offset="0" stop-color="#008ce6"/><stop offset=".21" stop-color="#13a7e2"/><stop offset=".555" stop-color="#2fcfdc"/><stop offset=".831" stop-color="#40e7d8"/><stop offset="1" stop-color="#46f0d7"/></linearGradient><path fill="url(#prefix__b)" d="M4.955 11.337c.825 1.439 1.735 2.454 2.708 3.025a6.4 6.4 0 003.787.847 7.052 7.052 0 001.164-.212C11.408 12.902 6.076 3.656 6.076 3.656 5.76 3.106 5.59 3 5.018 3H.152c.296.508 4.337 7.511 4.803 8.337z"/><linearGradient id="prefix__c" gradientUnits="userSpaceOnUse" x1="12.022" y1="2.908" x2="20.129" y2="16.95" gradientTransform="matrix(1 0 0 -1 0 28.535)"><stop offset="0" stop-color="#008ce6"/><stop offset=".21" stop-color="#13a7e2"/><stop offset=".555" stop-color="#2fcfdc"/><stop offset=".831" stop-color="#40e7d8"/><stop offset="1" stop-color="#46f0d7"/></linearGradient><path fill="url(#prefix__c)" d="M18.814 18.658c.825-1.439 1.27-2.73 1.27-3.851.02-1.375-.424-2.645-1.164-3.703a7.898 7.898 0 00-.762-.91c-1.206 2.095-6.538 11.32-6.538 11.32-.318.55-.318.741-.042 1.249l2.433 4.21a1349.7 1349.7 0 004.803-8.315z"/></svg>